<?xml version="1.0" standalone="no"?>
<!DOCTYPE svg PUBLIC "-//W3C//DTD SVG 20010904//EN"
 "http://www.w3.org/TR/2001/REC-SVG-20010904/DTD/svg10.dtd">
<svg version="1.0" xmlns="http://www.w3.org/2000/svg"
 width="4500.000000pt" height="4500.000000pt" viewBox="0 0 4500.000000 4500.000000"
 preserveAspectRatio="xMidYMid meet">

<g transform="translate(0.000000,4500.000000) scale(0.100000,-0.100000)"
fill="#000000" stroke="none">
<path d="M10899 36999 c-507 -29 -997 -157 -1379 -361 -265 -142 -461 -288
-686 -513 -278 -277 -463 -531 -643 -885 -254 -498 -394 -1001 -468 -1685 -25
-230 -25 -823 0 -1020 77 -616 246 -1167 476 -1558 197 -332 493 -605 802
-738 145 -63 263 -90 420 -96 163 -7 250 4 454 57 501 129 799 324 996 652 67
111 105 215 129 354 12 66 39 184 61 263 121 436 173 779 173 1151 0 325 -24
496 -95 665 -38 93 -114 210 -160 249 -116 98 -301 100 -435 4 -30 -22 -54
-42 -52 -44 2 -2 33 6 68 18 40 12 104 22 165 25 125 6 190 -15 260 -83 115
-111 160 -311 185 -809 5 -115 13 -243 16 -282 6 -73 6 -73 -19 -73 -24 0 -26
3 -31 78 -4 42 -10 115 -14 162 l-7 85 -59 -355 c-79 -478 -131 -701 -217
-922 -185 -476 -504 -764 -985 -888 -203 -53 -420 -56 -599 -10 -100 25 -258
103 -350 172 -148 111 -346 336 -467 530 -305 491 -450 1151 -435 1972 7 395
39 659 123 1037 231 1043 771 1798 1599 2235 494 261 1088 362 1685 289 658
-82 1243 -389 1779 -934 375 -381 731 -808 962 -1152 221 -330 611 -1001 1284
-2209 545 -978 1022 -1805 1281 -2221 712 -1146 1354 -1887 2134 -2466 328
-244 608 -410 1120 -666 1266 -634 2489 -1086 3655 -1352 341 -78 1256 -259
1641 -325 539 -92 1142 -148 1825 -170 172 -5 785 -7 1405 -3 1127 6 1437 0
1692 -32 484 -60 1006 -218 1477 -444 952 -459 1645 -1161 2125 -2153 305
-631 486 -1302 577 -2128 22 -206 26 -866 5 -1050 -109 -977 -480 -1932 -1040
-2675 -575 -763 -1381 -1355 -2195 -1614 -861 -274 -1862 -267 -2727 18 -825
272 -1468 751 -1910 1422 -272 413 -435 859 -497 1363 -35 289 -16 754 41 980
95 371 329 612 685 702 105 27 290 43 511 45 132 1 134 1 90 15 -114 37 -188
47 -335 48 -197 1 -338 -31 -500 -112 -225 -112 -409 -311 -496 -537 -39 -101
-94 -317 -116 -460 -25 -154 -24 -530 1 -665 58 -315 231 -906 362 -1238 159
-401 363 -670 780 -1028 515 -442 991 -694 1634 -863 957 -253 1948 -238 2793
40 1115 368 1988 1117 2641 2267 380 669 618 1401 690 2122 86 857 13 1665
-228 2518 -260 920 -670 1672 -1243 2283 -837 894 -1869 1392 -3218 1554 -438
52 -598 54 -1200 14 -271 -19 -1490 0 -2050 31 -677 38 -1692 147 -2278 245
-874 147 -1567 344 -2543 725 -443 173 -1479 598 -1673 686 -418 190 -846 438
-1221 707 -599 431 -1142 976 -1585 1592 -436 606 -939 1452 -1795 3015 -698
1275 -859 1553 -1155 2000 -565 853 -1172 1499 -1777 1894 -527 344 -984 501
-1549 536 -178 11 -171 11 -370 -1z"/>
<path d="M16970 35477 c-14 -6 -26 -11 -27 -12 -4 -2 101 -900 138 -1190 139
-1086 414 -2011 883 -2970 855 -1750 2101 -3038 3620 -3743 1100 -511 2446
-802 4461 -967 454 -37 689 -46 1354 -55 698 -9 943 -18 1301 -46 1399 -108
2604 -433 3567 -960 670 -366 1157 -759 1489 -1199 42 -56 60 -73 65 -62 19
33 174 513 233 719 273 957 314 1717 131 2464 -153 625 -457 1157 -934 1635
-496 496 -1100 864 -1969 1199 -1206 464 -2613 725 -4252 790 -936 37 -1400
80 -2095 196 -2425 405 -4640 1319 -6275 2590 -349 271 -644 530 -969 849
-283 278 -412 419 -564 617 -66 87 -123 158 -126 157 -3 0 -17 -5 -31 -12z"/>
<path d="M35245 34614 c-189 -13 -404 -55 -555 -110 -368 -132 -799 -519 -954
-855 -178 -387 -147 -796 86 -1136 69 -102 230 -262 341 -340 160 -113 367
-206 552 -249 61 -15 117 -19 235 -18 265 1 396 48 529 190 78 84 139 193 177
319 24 79 27 107 28 235 1 80 -2 161 -7 181 l-7 36 -88 6 c-230 17 -388 126
-500 346 -63 124 -81 212 -64 314 21 120 61 187 192 318 223 224 472 353 780
406 127 22 404 21 630 -1 285 -28 345 -33 349 -30 7 6 -239 120 -384 177 -244
96 -458 155 -695 192 -103 16 -512 28 -645 19z"/>
<path d="M36712 33820 c-120 -13 -288 -46 -435 -86 -114 -31 -536 -170 -546
-179 -6 -7 110 -55 170 -70 178 -46 336 -140 479 -285 247 -249 358 -576 329
-966 -25 -342 -116 -700 -281 -1108 -33 -83 -150 -347 -258 -586 -646 -1422
-742 -1735 -1000 -3260 -139 -819 -183 -1034 -285 -1390 -156 -543 -396 -1060
-673 -1448 -38 -53 -103 -150 -145 -215 l-77 -118 23 -34 c12 -19 25 -35 29
-35 8 0 327 133 738 307 268 114 563 255 715 342 432 248 781 585 1022 985 37
60 128 239 204 397 201 422 425 838 561 1043 272 410 604 606 1023 606 202 0
367 -34 510 -104 248 -123 388 -329 440 -649 29 -177 12 -322 -51 -454 -35
-73 -135 -207 -176 -236 -13 -9 -36 -28 -53 -41 l-29 -25 69 -33 c68 -32 74
-33 190 -32 147 2 493 51 661 94 456 118 781 380 933 752 81 198 115 386 114
638 -1 680 -260 1236 -787 1687 -252 216 -494 342 -777 405 -147 32 -386 32
-546 0 -542 -109 -970 -431 -1425 -1073 -250 -352 -415 -647 -850 -1514 -464
-926 -493 -978 -812 -1463 l-166 -253 -30 18 c-40 23 -39 37 14 240 203 780
207 799 291 1294 90 531 133 700 256 1014 217 556 555 1058 1000 1490 302 292
629 538 1053 790 357 213 590 425 782 711 74 112 166 296 219 438 35 95 96
319 110 402 l6 42 -373 5 c-400 5 -435 9 -534 60 -29 14 -68 45 -87 68 -58 67
-67 108 -67 310 0 195 -16 315 -69 521 -115 446 -293 688 -630 857 -106 54
-262 106 -373 125 -112 20 -300 27 -406 16z"/>
<path d="M14447 29073 c-11 -18 -259 -558 -307 -668 -75 -172 -142 -348 -300
-780 -214 -590 -279 -751 -467 -1154 -377 -811 -922 -1823 -1461 -2716 -219
-361 -373 -600 -449 -695 -81 -102 -464 -493 -510 -521 -51 -32 -116 -28 -162
9 -66 53 -121 192 -121 306 0 39 14 312 30 606 102 1815 186 2447 544 4069 64
288 114 527 111 529 -3 3 -9 1 -14 -4 -5 -5 -78 -218 -162 -474 l-153 -465
-12 40 c-7 22 -13 54 -13 70 -1 17 32 215 73 440 114 633 111 610 89 675 -17
51 -24 59 -118 127 -144 105 -665 455 -665 448 0 -52 -241 -1038 -426 -1745
-643 -2451 -1292 -4234 -1999 -5490 -481 -854 -857 -1319 -1323 -1634 -280
-190 -513 -263 -802 -253 -218 7 -395 61 -622 188 -216 122 -480 362 -665 604
-50 66 -169 221 -263 345 -95 124 -177 230 -183 235 -25 24 203 -345 334 -541
465 -693 897 -1030 1514 -1184 l150 -37 -40 -21 c-88 -44 -245 -105 -335 -128
-309 -81 -576 -32 -818 151 -40 30 -76 55 -79 55 -7 0 47 -72 114 -153 101
-122 256 -216 448 -273 119 -35 325 -44 461 -20 254 44 578 197 886 417 488
350 903 828 1319 1519 543 905 985 1913 1450 3312 73 219 135 395 138 392 3
-3 5 -283 3 -622 -3 -624 4 -849 33 -1007 31 -168 106 -343 199 -464 244 -316
747 -485 1121 -376 180 52 347 158 468 298 177 204 569 756 934 1317 225 344
274 427 474 802 90 167 170 316 180 331 l17 29 7 -49 c3 -27 2 -85 -4 -129 -6
-43 -40 -333 -76 -644 -94 -814 -136 -1125 -211 -1545 -32 -178 -36 -212 -31
-315 7 -140 24 -205 87 -335 60 -124 112 -197 354 -494 394 -484 951 -1186
1181 -1491 413 -545 531 -688 764 -920 464 -463 962 -763 1539 -929 178 -51
384 -91 467 -91 197 0 420 98 548 240 49 55 102 153 113 209 7 32 6 34 -17 28
-13 -3 -94 -18 -179 -32 -229 -39 -322 -60 -466 -109 -219 -75 -377 -83 -577
-31 -235 61 -594 250 -878 463 -178 133 -281 223 -465 407 -258 257 -370 393
-767 922 -573 766 -620 866 -787 1678 -57 277 -58 294 -24 295 6 0 39 -80 74
-177 187 -536 348 -865 555 -1137 98 -128 194 -237 195 -218 0 7 -63 171 -139
365 -225 570 -289 766 -350 1062 -60 295 -78 484 -112 1225 -37 783 -21 1174
61 1560 107 500 235 902 610 1905 180 482 254 662 557 1342 136 304 244 555
242 557 -9 8 -878 506 -883 506 -3 0 -7 -3 -9 -7z"/>
<path d="M18601 26770 c-390 -684 -738 -1582 -1071 -2760 -29 -102 -56 -188
-59 -191 -10 -10 -71 10 -71 24 0 7 157 561 349 1232 193 671 348 1221 345
1224 -5 6 -54 -40 -54 -51 0 -4 -82 -241 -181 -526 -344 -980 -464 -1361 -605
-1920 -200 -791 -313 -1529 -354 -2297 -5 -104 -10 -235 -10 -290 0 -55 -9
-174 -21 -265 -16 -127 -20 -207 -17 -350 3 -177 4 -188 30 -243 18 -39 59
-90 126 -161 82 -85 135 -157 299 -402 109 -164 240 -364 291 -443 72 -111 96
-141 105 -132 20 20 11 83 -52 382 -86 408 -102 508 -108 709 -11 345 36 773
139 1255 92 435 215 695 432 911 140 141 255 213 961 607 193 107 521 292 730
411 208 118 381 213 383 211 5 -5 -102 -483 -148 -660 -171 -658 -265 -1272
-301 -1965 -13 -248 -7 -863 11 -1095 14 -185 84 -814 121 -1090 153 -1133
372 -1775 774 -2270 103 -126 288 -304 378 -363 82 -53 207 -104 302 -121 190
-35 422 15 547 119 34 28 125 166 116 175 -2 2 -91 -3 -198 -12 -162 -13 -218
-13 -330 -3 -247 22 -359 48 -485 113 -108 56 -188 138 -307 317 -245 367
-422 814 -547 1385 l-20 90 30 -35 c16 -19 58 -93 93 -165 34 -71 82 -161 106
-200 260 -423 688 -712 1200 -809 158 -30 308 -39 573 -33 410 8 647 51 1174
214 101 31 181 58 179 61 -3 2 -157 -7 -343 -19 -449 -31 -991 -34 -1128 -6
-504 103 -909 429 -1188 957 -172 325 -269 698 -324 1240 -42 423 -11 1264 62
1669 30 171 61 392 83 596 7 69 7 70 38 73 l32 3 -13 -63 c-8 -35 -20 -124
-29 -198 -34 -309 -30 -532 19 -1150 14 -173 29 -371 33 -440 7 -114 8 -96 15
200 39 1790 336 3517 924 5373 41 131 73 240 72 242 -2 1 -163 82 -357 179
-236 118 -354 172 -357 164 -2 -7 -52 -141 -111 -298 -119 -317 -173 -481
-234 -707 -116 -434 -308 -778 -609 -1087 -179 -183 -368 -327 -626 -476 -139
-80 -562 -286 -850 -413 -143 -63 -320 -142 -393 -176 -109 -49 -137 -58 -157
-51 l-25 10 24 62 c13 35 319 813 680 1730 361 917 656 1671 656 1677 0 9
-662 431 -677 431 -5 0 -37 -50 -72 -110z"/>
<path d="M22343 24661 c-66 -24 -101 -49 -153 -108 -41 -46 -92 -142 -106
-197 -7 -28 -6 -29 22 -21 113 28 245 55 277 55 20 0 88 17 150 37 144 48 217
50 295 10 212 -111 428 -297 564 -488 209 -292 332 -729 272 -963 -58 -224
-231 -353 -424 -316 -148 28 -264 130 -374 330 -118 213 -228 382 -288 443
-37 37 -81 69 -125 90 -61 29 -77 32 -159 32 -85 0 -95 -2 -168 -39 -96 -47
-167 -115 -289 -278 -49 -65 -92 -120 -97 -123 -28 -18 -11 33 60 175 l80 160
-35 17 c-19 9 -36 15 -38 12 -22 -28 -246 -469 -277 -546 -77 -193 -224 -837
-400 -1758 -46 -237 -51 -281 -47 -360 8 -155 30 -196 157 -298 76 -61 418
-283 425 -275 1 2 130 254 285 560 155 307 285 560 289 562 4 3 13 1 21 -4 12
-7 10 -38 -15 -197 -24 -149 -30 -218 -29 -333 1 -217 36 -495 90 -722 22 -92
30 -111 61 -144 20 -20 66 -51 102 -68 57 -27 77 -31 148 -31 101 0 119 12 80
53 l-27 29 102 27 c307 82 609 263 833 497 82 86 170 189 162 189 -2 0 -100
-56 -218 -125 -301 -177 -400 -225 -475 -232 -136 -12 -224 62 -244 208 -10
73 5 361 25 478 27 155 121 478 311 1070 47 145 84 267 82 272 -4 12 -556 388
-561 382 -3 -2 -175 -315 -383 -694 -364 -663 -380 -689 -404 -684 -14 4 -28
10 -32 13 -4 4 38 169 93 367 196 705 272 945 325 1025 36 53 203 260 210 260
13 0 246 -191 329 -270 155 -147 257 -191 440 -192 237 0 416 93 491 255 71
157 54 527 -37 802 -142 425 -465 789 -863 970 -208 95 -403 127 -513 86z"/>
<path d="M30689 24457 c-522 -635 -814 -1330 -914 -2179 -32 -271 -19 -244
114 229 69 244 126 441 127 440 7 -7 -20 -278 -57 -577 -66 -535 -63 -676 17
-839 31 -63 62 -100 202 -243 91 -92 168 -168 171 -168 4 0 236 355 516 789
281 434 511 788 513 786 8 -8 -171 -665 -278 -1019 -222 -734 -418 -1253 -735
-1944 -23 -50 -43 -81 -50 -78 -40 15 -1013 303 -1165 345 -352 96 -349 95
-520 95 -139 -1 -164 -3 -245 -28 -247 -75 -436 -245 -534 -480 -71 -170 -109
-367 -118 -602 -11 -296 21 -493 112 -680 108 -223 264 -358 480 -415 167 -44
460 -21 804 62 664 162 1187 557 1570 1186 89 146 110 156 253 118 229 -62
463 -116 579 -135 371 -60 754 -38 953 54 328 151 556 522 555 901 0 61 -3
128 -7 150 l-8 40 -48 -90 c-27 -49 -65 -119 -84 -155 -60 -110 -256 -401
-325 -480 -261 -302 -618 -394 -1103 -285 -99 23 -506 137 -545 153 -14 6 0
46 91 267 59 143 155 377 214 519 358 866 477 1260 1095 3629 69 265 70 268
55 316 -9 33 -27 60 -52 83 -41 37 -195 127 -423 246 l-135 72 -48 -183 c-192
-726 -485 -1401 -854 -1961 -94 -143 -321 -450 -328 -443 -3 2 7 74 21 158
109 647 337 1270 700 1907 41 73 75 136 75 140 -1 8 -530 379 -552 387 -7 2
-45 -35 -89 -88z m-1789 -4536 c217 -55 465 -129 953 -284 259 -83 335 -111
357 -132 l28 -27 -95 -157 c-280 -458 -452 -659 -664 -775 -256 -140 -601 -31
-737 232 -69 133 -77 190 -77 554 0 175 -1 318 -2 318 -7 0 -65 -127 -96 -210
-70 -188 -81 -247 -81 -430 0 -153 2 -170 26 -238 85 -236 258 -384 560 -481
100 -32 296 -71 355 -71 18 0 33 -3 33 -8 0 -8 -217 -94 -345 -137 -212 -71
-453 -101 -615 -76 -268 42 -483 181 -578 373 -65 131 -85 240 -86 468 0 211
15 300 86 513 98 294 175 417 323 516 189 126 322 137 655 52z"/>
<path d="M28737 24108 c-150 -227 -427 -648 -617 -935 -189 -287 -346 -521
-347 -519 -5 5 75 267 110 361 118 314 268 603 473 917 l103 157 -291 191
c-159 105 -295 193 -302 196 -7 3 -65 -88 -145 -226 -74 -127 -139 -230 -147
-230 -8 0 -14 1 -14 3 0 1 27 81 60 176 33 96 59 176 56 178 -7 8 -163 -235
-215 -335 -66 -129 -105 -247 -185 -562 -112 -437 -217 -942 -262 -1255 -23
-163 -23 -403 0 -510 36 -164 111 -302 225 -416 59 -59 208 -169 228 -169 4 0
23 57 42 128 108 408 308 906 528 1317 151 282 400 682 559 897 l46 63 -6 -40
c-20 -137 -48 -493 -49 -620 -2 -143 -1 -152 23 -195 21 -37 34 -48 75 -62 50
-17 185 -25 185 -10 0 4 -14 27 -30 52 -16 25 -30 48 -30 51 0 3 24 2 54 -3
69 -12 192 9 301 51 375 145 784 570 910 944 14 44 25 85 23 93 -2 8 -52 -43
-113 -114 -230 -266 -360 -404 -399 -424 -22 -11 -63 -29 -92 -38 l-52 -18
-21 77 c-12 43 -21 91 -21 108 0 40 70 275 155 517 53 153 63 192 53 202 -20
18 -586 414 -592 414 -4 0 -129 -186 -279 -412z"/>
<path d="M15877 24218 c-331 -431 -400 -535 -642 -961 -77 -135 -145 -246
-151 -247 -5 0 -19 6 -29 14 -19 14 -9 36 228 504 243 481 247 491 247 551 0
86 -17 119 -91 178 -65 50 -269 190 -292 199 -7 2 -40 -32 -76 -81 -34 -47
-64 -85 -66 -85 -1 0 -12 28 -25 61 l-22 61 -45 -78 c-107 -186 -120 -222
-214 -565 -165 -609 -257 -1017 -279 -1252 -18 -183 6 -334 73 -462 45 -85
164 -201 255 -249 41 -21 75 -36 77 -34 1 1 17 55 33 118 145 544 448 1172
794 1648 l46 64 4 -264 c4 -282 8 -310 61 -367 46 -50 127 -63 158 -25 24 29
90 55 167 64 93 12 167 46 278 129 141 105 280 265 399 460 61 100 164 295
143 270 -283 -329 -442 -509 -449 -509 -5 0 -25 15 -44 33 -32 28 -36 40 -44
102 -17 142 9 252 118 498 34 76 61 142 61 147 0 8 -462 330 -473 330 -3 0
-93 -114 -200 -252z"/>
<path d="M25847 23893 c-233 -359 -1150 -1759 -1155 -1763 -10 -10 9 69 49
200 111 367 315 785 541 1105 39 55 72 104 74 110 3 6 -39 37 -92 70 -53 33
-151 99 -218 148 -146 107 -188 130 -243 131 -37 1 -48 -4 -86 -42 -24 -24
-72 -90 -106 -147 -36 -59 -71 -105 -82 -108 -10 -3 -19 -4 -19 -4 0 1 18 58
39 127 22 68 39 125 37 127 -1 1 -19 -9 -39 -22 -42 -29 -85 -102 -167 -283
-231 -512 -370 -1047 -434 -1672 -25 -240 -39 -489 -33 -595 11 -225 102 -383
342 -592 l119 -104 19 68 c189 705 476 1345 884 1968 132 201 255 377 260 371
2 -2 -6 -109 -17 -237 -29 -313 -31 -498 -7 -561 34 -89 120 -136 224 -124 90
11 91 13 9 74 -42 31 -74 57 -73 59 2 1 69 -3 149 -9 179 -14 222 -6 350 58
124 62 205 120 316 228 105 102 201 224 288 366 62 102 219 399 213 404 -2 1
-134 -138 -294 -310 -159 -172 -296 -313 -303 -313 -7 -1 -26 6 -42 14 -37 19
-45 55 -45 195 1 160 27 250 162 554 62 139 72 171 61 182 -10 10 -567 394
-607 419 -6 3 -39 -38 -74 -92z"/>
<path d="M22326 15339 c-36 -29 -96 -133 -230 -399 -471 -942 -749 -1925 -851
-3005 -42 -450 -64 -1182 -46 -1560 20 -424 48 -664 122 -1060 65 -346 45
-304 232 -493 178 -180 847 -827 847 -819 0 3 -25 61 -56 128 -247 548 -384
1079 -446 1734 -8 91 -13 285 -13 550 1 447 11 614 65 1041 26 204 115 762
122 769 2 2 50 -58 108 -133 211 -274 306 -389 399 -485 80 -82 109 -105 180
-140 83 -41 86 -42 190 -42 101 0 110 2 181 36 42 20 101 59 133 89 152 139
382 575 516 980 119 358 186 660 391 1780 75 408 96 538 87 547 -25 25 -650
454 -658 451 -5 -2 -261 -406 -570 -898 -308 -492 -562 -896 -564 -898 -1 -1
-12 5 -24 15 l-21 18 319 720 c176 396 317 723 313 727 -4 3 -86 48 -182 98
-96 50 -212 117 -258 148 -153 105 -184 122 -223 122 -22 0 -47 -8 -63 -21z
m1134 -824 c0 -19 -117 -689 -135 -772 -69 -319 -225 -870 -381 -1345 -81
-247 -112 -307 -179 -346 -55 -32 -141 -26 -214 14 -75 40 -172 147 -217 239
-32 65 -38 88 -42 158 l-4 82 147 260 c147 260 567 987 848 1467 102 175 154
255 163 251 8 -3 14 -6 14 -8z"/>
<path d="M25860 15307 c-74 -25 -151 -78 -208 -142 -42 -48 -187 -280 -275
-440 -120 -219 -173 -375 -351 -1045 -136 -507 -418 -1654 -419 -1697 -1 -72
27 -115 112 -176 121 -87 546 -367 557 -367 5 0 189 357 409 794 220 437 402
792 404 791 7 -8 -22 -329 -45 -485 -57 -381 -65 -513 -43 -708 20 -186 73
-391 129 -502 33 -65 97 -133 153 -162 52 -26 157 -48 234 -48 272 -1 670 206
997 519 63 61 198 217 217 252 13 26 33 37 -196 -114 -285 -188 -428 -247
-602 -248 -111 0 -158 15 -215 72 -86 85 -101 221 -58 524 75 534 242 1094
481 1616 27 58 49 110 49 115 -1 15 -682 486 -691 477 -4 -4 -121 -217 -259
-472 -450 -828 -722 -1310 -714 -1266 37 226 182 846 274 1168 120 424 160
513 367 829 53 80 72 101 109 119 92 44 142 7 354 -260 74 -93 138 -170 141
-170 9 -1 32 187 25 213 -7 29 -152 280 -233 405 -119 184 -241 320 -333 373
-106 62 -252 75 -370 35z"/>
<path d="M20002 15305 c-29 -8 -63 -20 -75 -26 -128 -66 -342 -321 -417 -497
-60 -142 -75 -214 -74 -372 0 -127 3 -157 27 -242 33 -120 85 -250 138 -342
22 -38 38 -70 37 -71 -2 -1 -39 -26 -83 -55 -464 -309 -876 -757 -1020 -1113
-58 -142 -78 -244 -72 -377 8 -184 55 -286 196 -427 213 -212 495 -306 821
-274 293 30 527 136 716 327 256 259 396 654 381 1079 -10 286 -78 522 -236
828 -39 74 -51 108 -51 142 0 77 22 93 392 280 445 224 1092 560 1151 597 51
33 53 36 35 60 -12 14 -107 -27 -846 -363 -459 -209 -837 -377 -842 -374 -18
11 -72 170 -82 245 -21 139 21 279 125 415 45 60 157 172 294 296 l73 65 -108
61 c-59 34 -127 71 -152 83 -121 61 -238 80 -328 55z m-252 -1845 c109 -336
145 -542 137 -780 -8 -235 -58 -404 -179 -596 -129 -207 -314 -310 -517 -290
-213 22 -393 122 -458 254 -25 51 -28 67 -26 152 3 223 80 438 224 626 105
138 199 243 488 542 190 197 266 270 273 260 4 -7 31 -83 58 -168z"/>
</g>
</svg>
